<svg width="20" height="20" viewBox="0 0 20 20" fill="none" xmlns="http://www.w3.org/2000/svg">
<path fill-rule="evenodd" clip-rule="evenodd" d="M4.20788 2.49945C3.97971 2.61354 3.65461 2.8677 3.15374 3.36857C2.2127 4.30962 0.974969 8.30506 6.54196 13.8721C12.109 19.439 16.1044 18.2013 17.0454 17.2603C17.5463 16.7594 17.8005 16.4343 17.9146 16.2061C18.0042 16.0268 17.9852 15.9608 17.9564 15.8906C17.8982 15.7495 17.7459 15.5466 17.3885 15.1892C17.2358 15.0365 17.0621 14.8709 16.8613 14.6796C16.8382 14.6576 16.8147 14.6352 16.7909 14.6125C16.5625 14.3948 16.3064 14.1495 16.029 13.8721C15.755 13.598 15.2719 13.259 14.7535 13.1293C14.2775 13.0104 13.7881 13.0635 13.3184 13.5332C12.92 13.9316 12.486 14.2172 11.996 14.3251C11.494 14.4358 11.0244 14.3401 10.6004 14.1422C10.1903 13.9509 9.80153 13.6545 9.42871 13.3262C9.05683 12.9987 8.66222 12.6041 8.24757 12.1894L8.22459 12.1665C7.80994 11.7518 7.41531 11.3572 7.08784 10.9853C6.75953 10.6125 6.46317 10.2237 6.27182 9.81367C6.07394 9.38963 5.97826 8.92005 6.08887 8.41801C6.19683 7.92806 6.4824 7.494 6.88078 7.09561C7.3505 6.6259 7.40365 6.13647 7.28467 5.66053C7.15506 5.14213 6.81599 4.65907 6.54196 4.38504C6.26452 4.10759 6.01925 3.85148 5.80154 3.62315C5.77882 3.59932 5.75646 3.57586 5.73444 3.55275C5.54308 3.35196 5.37747 3.1782 5.22479 3.02551C4.86741 2.66813 4.66451 2.51578 4.52337 2.45766C4.45326 2.42879 4.38721 2.40978 4.20788 2.49945ZM6.84192 2.63117C7.05833 2.85814 7.29376 3.1039 7.55843 3.36857C7.96204 3.77219 8.47003 4.47501 8.67925 5.31189C8.89908 6.19124 8.78282 7.22651 7.89725 8.11208C7.61799 8.39134 7.52239 8.59257 7.4927 8.72732C7.46567 8.84999 7.47588 8.99452 7.57446 9.20577C7.67958 9.43104 7.87028 9.69871 8.16667 10.0353C8.46088 10.3694 8.82434 10.7333 9.25254 11.1615C9.68075 11.5897 10.0446 11.9531 10.3787 12.2473C10.7153 12.5437 10.983 12.7344 11.2082 12.8396C11.4195 12.9381 11.564 12.9483 11.6867 12.9213C11.8214 12.8916 12.0227 12.796 12.3019 12.5168C13.1875 11.6312 14.2228 11.5149 15.1021 11.7348C15.939 11.944 16.6418 12.452 17.0454 12.8556C17.3101 13.1203 17.5559 13.3557 17.7829 13.5721C17.8068 13.5949 17.8305 13.6175 17.8541 13.64C18.0521 13.8287 18.2392 14.007 18.405 14.1728C18.7591 14.5269 19.1065 14.9085 19.2856 15.3433C19.4939 15.8492 19.4495 16.3507 19.2003 16.849C18.9756 17.2985 18.5775 17.7611 18.0619 18.2767C16.2924 20.0463 11.3429 20.7059 5.5255 14.8885C-0.291928 9.07109 0.367744 4.12164 2.13728 2.35211C2.65288 1.83651 3.11554 1.43844 3.56501 1.21371C4.06333 0.964552 4.56481 0.92013 5.0707 1.12844C5.50555 1.3075 5.88712 1.65491 6.24126 2.00905C6.40702 2.17481 6.58531 2.36191 6.77402 2.55993C6.7965 2.58353 6.81914 2.60728 6.84192 2.63117Z" fill="#EF410A"/>
</svg>
