<svg width="36" height="36" viewBox="0 0 36 36" fill="none" xmlns="http://www.w3.org/2000/svg">
<path fill-rule="evenodd" clip-rule="evenodd" d="M21.2016 12.0481C24.6906 12.1748 25.4354 12.3082 26.093 12.9236C26.6345 13.4305 26.8588 14.1062 27.0162 15.7046C27.1131 16.6895 27.1142 19.8413 27.0179 20.8634C26.8726 22.4046 26.7304 22.9904 26.3925 23.4405C25.9218 24.0673 25.4544 24.3019 24.4159 24.4324C21.6232 24.7836 13.5192 24.7498 11.3594 24.3782C10.2518 24.1875 9.55055 23.5266 9.31436 22.4507C9.04366 21.2175 8.92531 18.6126 9.04905 16.6117C9.19295 14.2844 9.36019 13.6189 9.96039 12.9839C10.475 12.4394 10.9633 12.2863 12.5901 12.1596C14.584 12.0042 18.573 11.9526 21.2016 12.0481ZM16.2444 18.3407V21.0641L16.5183 20.907C19.9993 18.9116 20.9429 18.3642 20.9429 18.3407C20.9429 18.3172 19.9993 17.7698 16.5183 15.7744L16.2444 15.6173V18.3407Z" fill="black"/>
<path fill-rule="evenodd" clip-rule="evenodd" d="M21.2016 12.0481C24.6906 12.1748 25.4354 12.3082 26.093 12.9236C26.6345 13.4305 26.8588 14.1062 27.0162 15.7046C27.1131 16.6895 27.1142 19.8413 27.0179 20.8634C26.8726 22.4046 26.7304 22.9904 26.3925 23.4405C25.9218 24.0673 25.4544 24.3019 24.4159 24.4324C21.6232 24.7836 13.5192 24.7498 11.3594 24.3782C10.2518 24.1875 9.55055 23.5266 9.31436 22.4507C9.04366 21.2175 8.92531 18.6126 9.04905 16.6117C9.19295 14.2844 9.36019 13.6189 9.96039 12.9839C10.475 12.4394 10.9633 12.2863 12.5901 12.1596C14.584 12.0042 18.573 11.9526 21.2016 12.0481ZM16.2444 18.3407V21.0641L16.5183 20.907C19.9993 18.9116 20.9429 18.3642 20.9429 18.3407C20.9429 18.3172 19.9993 17.7698 16.5183 15.7744L16.2444 15.6173V18.3407Z" fill="white"/>
<circle cx="18" cy="18" r="17.75" stroke="white" stroke-opacity="0.3" stroke-width="0.5"/>
</svg>
