<svg width="36" height="36" viewBox="0 0 36 36" fill="none" xmlns="http://www.w3.org/2000/svg">
<circle cx="18" cy="18" r="17.75" stroke="white" stroke-opacity="0.3" stroke-width="0.5"/>
<path fill-rule="evenodd" clip-rule="evenodd" d="M21.9348 12.0804C22.4014 12.1993 22.9122 12.4657 23.2637 12.7733L23.5588 13.0317L23.9407 12.9358C24.4019 12.8201 25.0858 12.5523 25.4236 12.3549L25.6711 12.2103L25.6313 12.3442C25.4969 12.7959 24.9583 13.529 24.5399 13.8295C24.4 13.9301 24.3137 14.0219 24.3484 14.0335C24.4426 14.0649 25.2386 13.8784 25.6577 13.7267C25.86 13.6535 26.036 13.6041 26.0488 13.6169C26.124 13.6921 24.9879 14.9097 24.6135 15.1552C24.4896 15.2364 24.4801 15.2875 24.4466 16.0519C24.3829 17.5038 24.0318 18.8099 23.3485 20.1365C22.8576 21.0894 22.3401 21.8044 21.6182 22.5267C20.3083 23.8374 18.7454 24.6675 16.8712 25.048C16.327 25.1585 16.0691 25.1755 14.9616 25.1735C13.8491 25.1716 13.6029 25.1543 13.0838 25.042C12.2348 24.8583 11.5648 24.6248 10.7791 24.2391C9.76106 23.7392 9.76464 23.7529 10.65 23.7484C11.8321 23.7425 12.6778 23.5371 13.7169 23.0035C13.987 22.8649 14.3304 22.6643 14.4802 22.5577C14.7343 22.377 14.7433 22.3622 14.6153 22.3383C14.5397 22.3241 14.3303 22.2854 14.1499 22.2523C13.1356 22.066 12.1421 21.2446 11.7629 20.2788L11.6734 20.0511L12.279 20.0501C13.1186 20.0488 13.2166 19.9971 12.713 19.821C11.5017 19.3975 10.6636 18.3155 10.4918 16.9535C10.4559 16.6682 10.4608 16.6491 10.5592 16.6902C10.9071 16.8354 11.4415 16.9963 11.6709 17.025L11.9368 17.0583L11.5277 16.6472C10.674 15.7891 10.3385 14.6348 10.609 13.4869C10.6745 13.2087 10.8601 12.7401 10.9459 12.6359C10.9518 12.6289 11.2751 12.9374 11.6645 13.3215C12.9423 14.5821 14.3887 15.3957 16.1282 15.8324C16.4566 15.9148 17.8101 16.1111 17.8379 16.0802C17.8453 16.072 17.8261 15.9006 17.7952 15.6994C17.733 15.2941 17.7969 14.7034 17.9537 14.2343C18.2884 13.2325 19.1622 12.4123 20.2254 12.1018C20.6585 11.9753 21.482 11.965 21.9348 12.0804Z" fill="black"/>
<path fill-rule="evenodd" clip-rule="evenodd" d="M21.9348 12.0804C22.4014 12.1993 22.9122 12.4657 23.2637 12.7733L23.5588 13.0317L23.9407 12.9358C24.4019 12.8201 25.0858 12.5523 25.4236 12.3549L25.6711 12.2103L25.6313 12.3442C25.4969 12.7959 24.9583 13.529 24.5399 13.8295C24.4 13.9301 24.3137 14.0219 24.3484 14.0335C24.4426 14.0649 25.2386 13.8784 25.6577 13.7267C25.86 13.6535 26.036 13.6041 26.0488 13.6169C26.124 13.6921 24.9879 14.9097 24.6135 15.1552C24.4896 15.2364 24.4801 15.2875 24.4466 16.0519C24.3829 17.5038 24.0318 18.8099 23.3485 20.1365C22.8576 21.0894 22.3401 21.8044 21.6182 22.5267C20.3083 23.8374 18.7454 24.6675 16.8712 25.048C16.327 25.1585 16.0691 25.1755 14.9616 25.1735C13.8491 25.1716 13.6029 25.1543 13.0838 25.042C12.2348 24.8583 11.5648 24.6248 10.7791 24.2391C9.76106 23.7392 9.76464 23.7529 10.65 23.7484C11.8321 23.7425 12.6778 23.5371 13.7169 23.0035C13.987 22.8649 14.3304 22.6643 14.4802 22.5577C14.7343 22.377 14.7433 22.3622 14.6153 22.3383C14.5397 22.3241 14.3303 22.2854 14.1499 22.2523C13.1356 22.066 12.1421 21.2446 11.7629 20.2788L11.6734 20.0511L12.279 20.0501C13.1186 20.0488 13.2166 19.9971 12.713 19.821C11.5017 19.3975 10.6636 18.3155 10.4918 16.9535C10.4559 16.6682 10.4608 16.6491 10.5592 16.6902C10.9071 16.8354 11.4415 16.9963 11.6709 17.025L11.9368 17.0583L11.5277 16.6472C10.674 15.7891 10.3385 14.6348 10.609 13.4869C10.6745 13.2087 10.8601 12.7401 10.9459 12.6359C10.9518 12.6289 11.2751 12.9374 11.6645 13.3215C12.9423 14.5821 14.3887 15.3957 16.1282 15.8324C16.4566 15.9148 17.8101 16.1111 17.8379 16.0802C17.8453 16.072 17.8261 15.9006 17.7952 15.6994C17.733 15.2941 17.7969 14.7034 17.9537 14.2343C18.2884 13.2325 19.1622 12.4123 20.2254 12.1018C20.6585 11.9753 21.482 11.965 21.9348 12.0804Z" fill="white"/>
</svg>
