<svg width="36" height="36" viewBox="0 0 36 36" fill="none" xmlns="http://www.w3.org/2000/svg">
<path fill-rule="evenodd" clip-rule="evenodd" d="M21.8128 10.1163C23.4712 10.6142 24.66 11.8395 25.0823 13.4858C25.2056 13.9663 25.2056 21.2067 25.0823 21.6872C24.6472 23.3833 23.3842 24.6454 21.6868 25.0801C21.2059 25.2034 13.9602 25.2034 13.4794 25.0801C11.8182 24.6547 10.5767 23.4419 10.1034 21.7823C10.01 21.4549 10 21.0488 10 17.5865C10 13.3963 9.99133 13.5151 10.3582 12.6862C10.9206 11.4154 12.1957 10.361 13.4793 10.1052C13.6592 10.0693 13.8599 10.0287 13.9254 10.0151C13.9908 10.0014 15.717 9.99605 17.7615 10.0031C21.0539 10.0145 21.5169 10.0275 21.8128 10.1163ZM13.733 11.6162C13.2212 11.7539 12.8188 11.9939 12.4026 12.4099C11.977 12.8351 11.7448 13.2299 11.6054 13.7647C11.472 14.2763 11.474 20.9045 11.6077 21.4173C11.7486 21.9578 12.0298 22.4256 12.4502 22.8185C12.8731 23.2139 13.2502 23.4276 13.7584 23.5598C14.2704 23.6931 20.9035 23.691 21.4167 23.5575C21.9576 23.4167 22.4258 23.1356 22.819 22.7156C23.2146 22.293 23.4285 21.9162 23.5608 21.4083C23.6923 20.9039 23.6923 14.2691 23.5608 13.7647C23.4285 13.2568 23.2146 12.8801 22.819 12.4574C22.4258 12.0374 21.9576 11.7563 21.4167 11.6155C20.92 11.4863 14.2136 11.4868 13.733 11.6162ZM21.7787 12.7201C22.1028 12.8015 22.4352 13.1446 22.4941 13.4583C22.5836 13.9347 22.2184 14.5063 21.771 14.5901C21.2777 14.6826 20.8559 14.4711 20.6625 14.0343C20.4317 13.5128 20.6892 12.9379 21.2408 12.743C21.5341 12.6394 21.4691 12.6422 21.7787 12.7201ZM18.4417 13.7535C19.5329 13.9845 20.585 14.8035 21.0806 15.8077C21.4145 16.4842 21.5282 17.0338 21.4917 17.7947C21.4422 18.8303 21.089 19.6091 20.3189 20.3813C19.5809 21.1214 18.6446 21.5062 17.5777 21.5081C16.504 21.5099 15.6012 21.1313 14.8164 20.35C14.0371 19.5743 13.6577 18.6695 13.6577 17.5865C13.6577 16.5047 14.0366 15.6003 14.816 14.8215C15.7921 13.8462 17.083 13.4659 18.4417 13.7535ZM16.7305 15.3519C16.0506 15.6366 15.6994 15.9693 15.3964 16.6156C15.2516 16.9245 15.2338 17.0308 15.2338 17.5865C15.2338 18.1647 15.2477 18.2399 15.4233 18.6102C15.6601 19.1098 16.0617 19.5084 16.572 19.7506C16.9277 19.9194 17.0085 19.934 17.5831 19.934C18.1612 19.934 18.2371 19.92 18.6061 19.7454C19.1131 19.5054 19.5033 19.1154 19.7436 18.6088C19.9183 18.2401 19.9323 18.1642 19.9323 17.5865C19.9323 17.0088 19.9183 16.9329 19.7436 16.5642C19.5033 16.0576 19.1131 15.6677 18.6061 15.4276C18.2589 15.2633 18.1347 15.2369 17.6426 15.2228C17.1549 15.2088 17.03 15.2265 16.7305 15.3519Z" fill="black"/>
<path fill-rule="evenodd" clip-rule="evenodd" d="M21.8128 10.1163C23.4712 10.6142 24.66 11.8395 25.0823 13.4858C25.2056 13.9663 25.2056 21.2067 25.0823 21.6872C24.6472 23.3833 23.3842 24.6454 21.6868 25.0801C21.2059 25.2034 13.9602 25.2034 13.4794 25.0801C11.8182 24.6547 10.5767 23.4419 10.1034 21.7823C10.01 21.4549 10 21.0488 10 17.5865C10 13.3963 9.99133 13.5151 10.3582 12.6862C10.9206 11.4154 12.1957 10.361 13.4793 10.1052C13.6592 10.0693 13.8599 10.0287 13.9254 10.0151C13.9908 10.0014 15.717 9.99605 17.7615 10.0031C21.0539 10.0145 21.5169 10.0275 21.8128 10.1163ZM13.733 11.6162C13.2212 11.7539 12.8188 11.9939 12.4026 12.4099C11.977 12.8351 11.7448 13.2299 11.6054 13.7647C11.472 14.2763 11.474 20.9045 11.6077 21.4173C11.7486 21.9578 12.0298 22.4256 12.4502 22.8185C12.8731 23.2139 13.2502 23.4276 13.7584 23.5598C14.2704 23.6931 20.9035 23.691 21.4167 23.5575C21.9576 23.4167 22.4258 23.1356 22.819 22.7156C23.2146 22.293 23.4285 21.9162 23.5608 21.4083C23.6923 20.9039 23.6923 14.2691 23.5608 13.7647C23.4285 13.2568 23.2146 12.8801 22.819 12.4574C22.4258 12.0374 21.9576 11.7563 21.4167 11.6155C20.92 11.4863 14.2136 11.4868 13.733 11.6162ZM21.7787 12.7201C22.1028 12.8015 22.4352 13.1446 22.4941 13.4583C22.5836 13.9347 22.2184 14.5063 21.771 14.5901C21.2777 14.6826 20.8559 14.4711 20.6625 14.0343C20.4317 13.5128 20.6892 12.9379 21.2408 12.743C21.5341 12.6394 21.4691 12.6422 21.7787 12.7201ZM18.4417 13.7535C19.5329 13.9845 20.585 14.8035 21.0806 15.8077C21.4145 16.4842 21.5282 17.0338 21.4917 17.7947C21.4422 18.8303 21.089 19.6091 20.3189 20.3813C19.5809 21.1214 18.6446 21.5062 17.5777 21.5081C16.504 21.5099 15.6012 21.1313 14.8164 20.35C14.0371 19.5743 13.6577 18.6695 13.6577 17.5865C13.6577 16.5047 14.0366 15.6003 14.816 14.8215C15.7921 13.8462 17.083 13.4659 18.4417 13.7535ZM16.7305 15.3519C16.0506 15.6366 15.6994 15.9693 15.3964 16.6156C15.2516 16.9245 15.2338 17.0308 15.2338 17.5865C15.2338 18.1647 15.2477 18.2399 15.4233 18.6102C15.6601 19.1098 16.0617 19.5084 16.572 19.7506C16.9277 19.9194 17.0085 19.934 17.5831 19.934C18.1612 19.934 18.2371 19.92 18.6061 19.7454C19.1131 19.5054 19.5033 19.1154 19.7436 18.6088C19.9183 18.2401 19.9323 18.1642 19.9323 17.5865C19.9323 17.0088 19.9183 16.9329 19.7436 16.5642C19.5033 16.0576 19.1131 15.6677 18.6061 15.4276C18.2589 15.2633 18.1347 15.2369 17.6426 15.2228C17.1549 15.2088 17.03 15.2265 16.7305 15.3519Z" fill="white"/>
<circle cx="18" cy="18" r="17.75" stroke="white" stroke-opacity="0.3" stroke-width="0.5"/>
</svg>
