<svg width="36" height="36" viewBox="0 0 36 36" fill="none" xmlns="http://www.w3.org/2000/svg">
<path fill-rule="evenodd" clip-rule="evenodd" d="M21.9549 10.4709L21.9704 11.9335L20.908 11.9526C19.3015 11.9816 19.2929 11.9904 19.2929 13.597V14.6158H20.6598C21.4115 14.6158 22.0266 14.6236 22.0266 14.6331C22.0266 14.6426 21.9612 15.2729 21.8812 16.0337C21.8012 16.7945 21.7358 17.4665 21.7358 17.5272C21.7358 17.632 21.675 17.6374 20.5144 17.6374H19.2929V21.9375V26.2376H17.4898H15.6868V21.9375V17.6374H14.8434H14V16.1266V14.6158H14.8366H15.6733L15.7016 13.2647C15.7339 11.7353 15.7943 11.4075 16.1792 10.6757C16.6577 9.76595 17.5344 9.18893 18.6625 9.04127C18.8653 9.01472 19.6855 8.99641 20.4853 9.0006L21.9394 9.00827L21.9549 10.4709Z" fill="black"/>
<path fill-rule="evenodd" clip-rule="evenodd" d="M21.9549 10.4709L21.9704 11.9335L20.908 11.9526C19.3015 11.9816 19.2929 11.9904 19.2929 13.597V14.6158H20.6598C21.4115 14.6158 22.0266 14.6236 22.0266 14.6331C22.0266 14.6426 21.9612 15.2729 21.8812 16.0337C21.8012 16.7945 21.7358 17.4665 21.7358 17.5272C21.7358 17.632 21.675 17.6374 20.5144 17.6374H19.2929V21.9375V26.2376H17.4898H15.6868V21.9375V17.6374H14.8434H14V16.1266V14.6158H14.8366H15.6733L15.7016 13.2647C15.7339 11.7353 15.7943 11.4075 16.1792 10.6757C16.6577 9.76595 17.5344 9.18893 18.6625 9.04127C18.8653 9.01472 19.6855 8.99641 20.4853 9.0006L21.9394 9.00827L21.9549 10.4709Z" fill="white"/>
<circle cx="18" cy="18" r="17.75" stroke="white" stroke-opacity="0.3" stroke-width="0.5"/>
</svg>
