<svg width="36" height="36" viewBox="0 0 36 36" fill="none" xmlns="http://www.w3.org/2000/svg">
<path fill-rule="evenodd" clip-rule="evenodd" d="M19.6974 9.9779C20.7754 10.2115 21.7639 10.631 22.7084 11.2559C23.5009 11.7802 24.4776 12.7563 25.0022 13.5482C25.6272 14.4916 26.0483 15.4868 26.2882 16.5876C26.3831 17.0228 26.398 17.2434 26.3996 18.2297C26.4013 19.2402 26.3884 19.4302 26.2859 19.9088C25.919 21.6222 25.1873 22.9683 23.9517 24.2031C22.9568 25.1973 21.9086 25.8518 20.6336 26.2748C19.6848 26.5896 19.2821 26.6474 18.0238 26.6495C17.0085 26.6512 16.8241 26.6386 16.3398 26.5346C14.631 26.1676 13.2775 25.4325 12.0464 24.2028C11.0542 23.2117 10.3909 22.1526 9.97338 20.8924C9.65572 19.9337 9.59961 19.5379 9.59961 18.2545C9.59961 17.2333 9.61324 17.0279 9.71055 16.5826C9.95251 15.4754 10.3662 14.4986 10.9959 13.5482C11.521 12.7556 12.497 11.7803 13.2914 11.2547C14.2458 10.6231 15.2672 10.1955 16.315 9.98869C17.0777 9.83824 17.0458 9.84047 18.1725 9.85742C19.0036 9.8699 19.3112 9.89422 19.6974 9.9779ZM17.6643 11.2225C17.1178 11.4998 16.532 12.4738 16.1448 13.7491C16.0194 14.162 15.8211 14.997 15.819 15.1211C15.8181 15.1697 16.2866 15.183 17.999 15.183C19.7112 15.183 20.1801 15.1697 20.1798 15.1211C20.1786 14.9624 19.9215 13.9496 19.7598 13.4666C19.3096 12.1219 18.6473 11.2102 18.0692 11.1393C17.9318 11.1225 17.8135 11.1468 17.6643 11.2225ZM15.1734 11.7077C14.0718 12.1921 13.1224 12.9231 12.4084 13.8367C12.0618 14.2802 11.6043 15.0084 11.6043 15.1166C11.6043 15.1706 11.8719 15.183 13.0346 15.183H14.4649L14.5529 14.7248C14.7511 13.6926 15.1644 12.4309 15.5181 11.7783C15.5959 11.6347 15.645 11.5183 15.6272 11.5198C15.6094 11.5212 15.4052 11.6058 15.1734 11.7077ZM20.4747 11.7772C20.8209 12.3916 21.2094 13.5621 21.4236 14.6365L21.5325 15.183H22.9632C24.0747 15.183 24.3938 15.1692 24.3938 15.1211C24.3937 15.0142 23.9237 14.264 23.5859 13.8317C22.8568 12.8986 21.8288 12.1204 20.7234 11.6649C20.5262 11.5836 20.3566 11.5171 20.3465 11.5171C20.3364 11.5171 20.394 11.6341 20.4747 11.7772ZM11.0932 16.5082C10.9958 16.6791 10.8603 17.7149 10.8617 18.2779C10.8626 18.6781 10.9698 19.5884 11.0485 19.8645L11.0908 20.0131L12.6736 20.0262L14.2564 20.0392V18.2552V16.471H12.6854C11.8213 16.471 11.1049 16.4878 11.0932 16.5082ZM15.5892 16.855C15.539 17.3511 15.539 19.1579 15.5892 19.6539L15.6281 20.0379H17.999H20.37L20.4083 19.6539C20.4578 19.1579 20.4578 17.3511 20.4083 16.855L20.37 16.471H17.999H15.6281L15.5892 16.855ZM21.7417 18.2545V20.0392L23.3245 20.0262L24.9073 20.0131L24.9496 19.8645C25.0307 19.5797 25.1355 18.6726 25.1355 18.2545C25.1355 17.8364 25.0307 16.9292 24.9496 16.6444L24.9073 16.4958L23.3245 16.4827L21.7417 16.4697V18.2545ZM11.6043 21.3878C11.6044 21.4944 12.074 22.2444 12.4095 22.6736C13.128 23.5931 14.0861 24.3279 15.1866 24.8038C15.4256 24.9072 15.6298 24.9918 15.6404 24.9918C15.651 24.9918 15.5959 24.8742 15.5181 24.7306C15.1639 24.0771 14.7856 22.9313 14.5745 21.8725L14.4656 21.3259H13.0349C11.9234 21.3259 11.6043 21.3397 11.6043 21.3878ZM15.8183 21.3878C15.8186 21.4219 15.8727 21.6871 15.9385 21.9772C16.1983 23.1216 16.6568 24.2259 17.101 24.7769C17.7371 25.566 18.261 25.566 18.8971 24.7769C19.3413 24.2259 19.7998 23.1216 20.0596 21.9772C20.1254 21.6871 20.1795 21.4219 20.1798 21.3878C20.1801 21.3392 19.7112 21.3259 17.999 21.3259C16.2869 21.3259 15.818 21.3392 15.8183 21.3878ZM21.4236 21.8725C21.2094 22.9468 20.8209 24.1173 20.4747 24.7317C20.394 24.8747 20.3391 24.9918 20.3525 24.9918C20.3659 24.9918 20.5725 24.9075 20.8115 24.8045C21.9874 24.2976 22.9661 23.517 23.7493 22.4614C24.0392 22.0706 24.3938 21.4756 24.3938 21.3798C24.3938 21.3422 23.9607 21.3259 22.9632 21.3259H21.5325L21.4236 21.8725Z" fill="black"/>
<path fill-rule="evenodd" clip-rule="evenodd" d="M19.6974 9.9779C20.7754 10.2115 21.7639 10.631 22.7084 11.2559C23.5009 11.7802 24.4776 12.7563 25.0022 13.5482C25.6272 14.4916 26.0483 15.4868 26.2882 16.5876C26.3831 17.0228 26.398 17.2434 26.3996 18.2297C26.4013 19.2402 26.3884 19.4302 26.2859 19.9088C25.919 21.6222 25.1873 22.9683 23.9517 24.2031C22.9568 25.1973 21.9086 25.8518 20.6336 26.2748C19.6848 26.5896 19.2821 26.6474 18.0238 26.6495C17.0085 26.6512 16.8241 26.6386 16.3398 26.5346C14.631 26.1676 13.2775 25.4325 12.0464 24.2028C11.0542 23.2117 10.3909 22.1526 9.97338 20.8924C9.65572 19.9337 9.59961 19.5379 9.59961 18.2545C9.59961 17.2333 9.61324 17.0279 9.71055 16.5826C9.95251 15.4754 10.3662 14.4986 10.9959 13.5482C11.521 12.7556 12.497 11.7803 13.2914 11.2547C14.2458 10.6231 15.2672 10.1955 16.315 9.98869C17.0777 9.83824 17.0458 9.84047 18.1725 9.85742C19.0036 9.8699 19.3112 9.89422 19.6974 9.9779ZM17.6643 11.2225C17.1178 11.4998 16.532 12.4738 16.1448 13.7491C16.0194 14.162 15.8211 14.997 15.819 15.1211C15.8181 15.1697 16.2866 15.183 17.999 15.183C19.7112 15.183 20.1801 15.1697 20.1798 15.1211C20.1786 14.9624 19.9215 13.9496 19.7598 13.4666C19.3096 12.1219 18.6473 11.2102 18.0692 11.1393C17.9318 11.1225 17.8135 11.1468 17.6643 11.2225ZM15.1734 11.7077C14.0718 12.1921 13.1224 12.9231 12.4084 13.8367C12.0618 14.2802 11.6043 15.0084 11.6043 15.1166C11.6043 15.1706 11.8719 15.183 13.0346 15.183H14.4649L14.5529 14.7248C14.7511 13.6926 15.1644 12.4309 15.5181 11.7783C15.5959 11.6347 15.645 11.5183 15.6272 11.5198C15.6094 11.5212 15.4052 11.6058 15.1734 11.7077ZM20.4747 11.7772C20.8209 12.3916 21.2094 13.5621 21.4236 14.6365L21.5325 15.183H22.9632C24.0747 15.183 24.3938 15.1692 24.3938 15.1211C24.3937 15.0142 23.9237 14.264 23.5859 13.8317C22.8568 12.8986 21.8288 12.1204 20.7234 11.6649C20.5262 11.5836 20.3566 11.5171 20.3465 11.5171C20.3364 11.5171 20.394 11.6341 20.4747 11.7772ZM11.0932 16.5082C10.9958 16.6791 10.8603 17.7149 10.8617 18.2779C10.8626 18.6781 10.9698 19.5884 11.0485 19.8645L11.0908 20.0131L12.6736 20.0262L14.2564 20.0392V18.2552V16.471H12.6854C11.8213 16.471 11.1049 16.4878 11.0932 16.5082ZM15.5892 16.855C15.539 17.3511 15.539 19.1579 15.5892 19.6539L15.6281 20.0379H17.999H20.37L20.4083 19.6539C20.4578 19.1579 20.4578 17.3511 20.4083 16.855L20.37 16.471H17.999H15.6281L15.5892 16.855ZM21.7417 18.2545V20.0392L23.3245 20.0262L24.9073 20.0131L24.9496 19.8645C25.0307 19.5797 25.1355 18.6726 25.1355 18.2545C25.1355 17.8364 25.0307 16.9292 24.9496 16.6444L24.9073 16.4958L23.3245 16.4827L21.7417 16.4697V18.2545ZM11.6043 21.3878C11.6044 21.4944 12.074 22.2444 12.4095 22.6736C13.128 23.5931 14.0861 24.3279 15.1866 24.8038C15.4256 24.9072 15.6298 24.9918 15.6404 24.9918C15.651 24.9918 15.5959 24.8742 15.5181 24.7306C15.1639 24.0771 14.7856 22.9313 14.5745 21.8725L14.4656 21.3259H13.0349C11.9234 21.3259 11.6043 21.3397 11.6043 21.3878ZM15.8183 21.3878C15.8186 21.4219 15.8727 21.6871 15.9385 21.9772C16.1983 23.1216 16.6568 24.2259 17.101 24.7769C17.7371 25.566 18.261 25.566 18.8971 24.7769C19.3413 24.2259 19.7998 23.1216 20.0596 21.9772C20.1254 21.6871 20.1795 21.4219 20.1798 21.3878C20.1801 21.3392 19.7112 21.3259 17.999 21.3259C16.2869 21.3259 15.818 21.3392 15.8183 21.3878ZM21.4236 21.8725C21.2094 22.9468 20.8209 24.1173 20.4747 24.7317C20.394 24.8747 20.3391 24.9918 20.3525 24.9918C20.3659 24.9918 20.5725 24.9075 20.8115 24.8045C21.9874 24.2976 22.9661 23.517 23.7493 22.4614C24.0392 22.0706 24.3938 21.4756 24.3938 21.3798C24.3938 21.3422 23.9607 21.3259 22.9632 21.3259H21.5325L21.4236 21.8725Z" fill="white"/>
<circle cx="18" cy="18" r="17.75" stroke="white" stroke-opacity="0.3" stroke-width="0.5"/>
</svg>
