<svg width="26" height="27" viewBox="0 0 26 27" fill="none" xmlns="http://www.w3.org/2000/svg">
<path fill-rule="evenodd" clip-rule="evenodd" d="M11.809 2.91351C9.24271 3.28371 6.92119 4.57825 5.34916 6.51564C3.10755 9.27832 2.46188 12.9304 3.62218 16.2843C3.84069 16.9159 4.28379 17.8824 4.55458 18.3181C4.63895 18.4538 4.70799 18.5925 4.70799 18.6264C4.70799 18.6602 4.32369 19.7162 3.854 20.9731C3.3843 22.2299 3 23.322 3 23.3998C3 23.6178 3.25413 23.8412 3.50065 23.8398C3.64034 23.8391 4.35485 23.5624 5.92429 22.9013L8.14986 21.9637L8.4604 22.138C9.70475 22.8363 11.1684 23.3137 12.5922 23.4857C13.4193 23.5856 15.0402 23.5209 15.8281 23.3566C21.4346 22.1869 24.8881 17.0042 23.8002 11.3928C23.5671 10.1904 22.9465 8.6878 22.2558 7.65354C20.8945 5.61501 18.8868 4.08288 16.6097 3.34488C16.053 3.16447 15.1146 2.95639 14.5432 2.88661C13.9449 2.81354 12.3964 2.82881 11.809 2.91351ZM15.0853 4.00832C19.3134 4.85397 22.46 8.2535 22.9237 12.4767C23.1728 14.7455 22.5197 17.1035 21.1401 18.9165C19.7892 20.6918 17.904 21.8671 15.6582 22.3342C14.8075 22.5112 13.3877 22.5577 12.5234 22.4371C11.1449 22.2447 10.0267 21.8549 8.8182 21.1452C8.55951 20.9933 8.29167 20.8698 8.22299 20.8706C8.15431 20.8715 7.28297 21.2154 6.28669 21.635C5.29042 22.0546 4.46722 22.3899 4.45738 22.3802C4.4475 22.3704 4.74847 21.5364 5.12619 20.5269C5.50392 19.5174 5.81327 18.6223 5.81358 18.5377C5.81394 18.4404 5.70489 18.2053 5.51644 17.8972C4.24114 15.8121 3.8011 13.3461 4.2914 11.032C4.61866 9.48738 5.41241 7.94417 6.47799 6.781C7.85054 5.28278 9.76556 4.274 11.8783 3.93633C12.5979 3.82135 14.3467 3.8606 15.0853 4.00832ZM9.77897 7.05103C8.89221 7.41226 7.99562 8.33994 7.6814 9.22155C7.52204 9.6685 7.51195 10.3485 7.65392 11.0733C8.42163 14.994 12.777 18.9725 16.5092 19.1623C17.1977 19.1973 17.4944 19.1348 18.08 18.8312C18.7737 18.4717 19.5883 17.5663 19.8295 16.8868C20.0338 16.3115 19.8536 15.8028 19.3292 15.4735C18.2546 14.7988 17.3793 14.2787 17.1556 14.1818C16.4233 13.8647 16.0603 14.0137 15.2958 14.9452L14.8948 15.4338L14.6522 15.3426C13.7488 15.0027 12.1564 13.4989 11.5522 12.4147C11.2792 11.9249 11.2679 11.9619 11.8303 11.4955C12.4873 10.9507 12.6865 10.697 12.7188 10.3638C12.7523 10.0186 12.662 9.73071 12.3704 9.25403C12.2356 9.03381 11.9099 8.50144 11.6464 8.07099C11.1477 7.25603 10.9869 7.08408 10.6342 6.98872C10.3249 6.90505 10.0966 6.9217 9.77897 7.05103ZM10.4279 8.07222C10.4736 8.13565 10.6579 8.4296 10.8374 8.72551C11.017 9.02141 11.2834 9.4574 11.4296 9.69443C11.5757 9.93141 11.6952 10.1549 11.6952 10.191C11.6952 10.2271 11.5499 10.379 11.3723 10.5286C10.6671 11.1226 10.3607 11.4552 10.3201 11.6712C10.194 12.3411 10.8736 13.511 12.078 14.6973C13.322 15.9226 14.5376 16.6028 15.1559 16.4195C15.4322 16.3375 15.5697 16.2194 16.052 15.6499C16.2821 15.3782 16.5053 15.1358 16.548 15.1112C16.6521 15.0513 16.8474 15.1477 17.725 15.6918C18.1235 15.9388 18.5211 16.1772 18.6086 16.2216C18.9118 16.375 18.9292 16.4376 18.7589 16.7622C18.5547 17.1516 17.9136 17.7783 17.5211 17.9723C16.1781 18.636 13.0805 17.317 11.1266 15.2493C9.19981 13.2102 8.13598 10.5212 8.76856 9.28913C9.02124 8.79699 9.97565 7.95718 10.2824 7.95698C10.3167 7.95693 10.3821 8.00878 10.4279 8.07222Z" fill="#EF410A" stroke="#EF410A" stroke-width="0.3"/>
</svg>
