<svg width="45" height="34" viewBox="0 0 45 34" fill="none" xmlns="http://www.w3.org/2000/svg">
<path fill-rule="evenodd" clip-rule="evenodd" d="M41.6138 31.1954C42.1077 31.8608 42.7105 32.4672 43.4137 32.8967C43.6564 33.0315 43.9076 33.1325 44.142 33.1999L44.4434 33.2336V33.9916H32.1123V33.2336C32.1123 33.2336 33.5773 33.301 34.6154 32.543C35.3186 32.0461 35.8543 31.1533 35.6032 29.6374C35.4944 29.0057 35.352 28.5341 35.3018 28.4161C34.2303 25.8727 33.1671 23.3292 32.1207 20.7773C32.0746 20.8699 32.0286 20.9604 31.9826 21.051C31.9365 21.1415 31.8905 21.2321 31.8444 21.3247C31.2264 22.5359 30.6115 23.7455 29.997 24.9542C29.1714 26.578 28.3467 28.2003 27.5164 29.8226C27.5164 29.8325 27.5135 29.8366 27.5112 29.84C27.5095 29.8424 27.508 29.8444 27.508 29.8479C27.2826 30.2959 27.0534 30.7438 26.8254 31.1892C26.7148 31.4054 26.6045 31.6209 26.4951 31.8355C26.1268 32.5514 25.7668 33.2673 25.4068 33.9832L24.1427 33.9916C22.6024 29.9237 21.0621 25.8643 19.5134 21.788L18.8688 20.0277C18.8018 19.8593 18.7327 19.6909 18.6637 19.5224C18.5946 19.354 18.5256 19.1855 18.4586 19.0171L17.8056 17.2569C17.4305 16.2778 17.0559 15.3 16.6816 14.323C15.6779 11.7027 14.6763 9.08765 13.6701 6.46817L9.7356 17.2569C9.62115 17.574 9.5067 17.8914 9.39218 18.2091C8.96219 19.4018 8.53111 20.5975 8.09481 21.788L5.91825 27.8013C5.57502 29.0141 5.57502 29.9574 5.76756 30.7238C6.49587 33.3936 10.1207 33.1915 10.1207 33.1915V34H0.443359V33.1915C0.443359 33.1915 2.52783 33.0904 4.21885 29.6542L8.72266 17.2569L13.1595 5.12906L11.2006 0.0252663H16.1983C17.4072 3.20801 18.4906 6.05557 19.4285 8.52086C20.1857 10.5112 20.8481 12.2524 21.4053 13.7196C21.5667 14.1395 21.7333 14.5724 21.9053 15.0194C23.2405 18.4898 24.9024 22.8095 27.0309 28.5172C27.4781 27.6561 27.9578 26.7338 28.4596 25.7691C29.3762 24.0069 30.3665 22.103 31.3673 20.1709C31.4133 20.0783 31.4614 19.9856 31.5096 19.893C31.5577 19.8004 31.6058 19.7077 31.6519 19.6151C30.7954 17.5314 29.9446 15.4463 29.0936 13.3609C27.8567 10.33 26.6197 7.29851 25.365 4.27C25.2185 3.92045 25.074 3.57089 24.9296 3.22133C24.7852 2.87185 24.6408 2.52238 24.4943 2.1729C24.2014 1.46546 23.9 0.741181 23.5986 0.0168986L23.5986 0.0168442H28.5628C29.1201 1.37835 29.6641 2.7076 30.1935 4.00128C31.724 7.74121 33.1329 11.184 34.3893 14.2502C37.2607 8.54 39.6131 3.68046 39.6214 2.91404C39.6298 2.20659 39.2698 1.76022 39.2698 1.76022C38.9266 1.33911 38.349 1.10329 37.5286 0.985385C37.4114 0.981174 37.2984 0.974858 37.1854 0.968541C37.0724 0.962224 36.9593 0.955908 36.8421 0.951697V0.0084221H44.0415C44.1755 0 44.3094 0 44.4434 0V0.918008C44.415 0.918008 44.3867 0.919976 44.3574 0.922009C44.3262 0.924182 44.2938 0.92643 44.2592 0.92643C44.1838 0.92643 44.1085 0.934853 44.0415 0.943275C42.5514 1.2212 41.3041 2.76245 39.973 5.35645C39.1192 7.02823 38.2695 8.7 37.4198 10.3718C36.5701 12.0436 35.7204 13.7154 34.8665 15.3872C37.9555 22.9334 39.9982 27.9445 40.4167 29.0478C40.4167 29.0478 40.7097 29.9911 41.6138 31.1954ZM17.7056 19.9856H9.89514C10.0207 19.6656 10.1463 19.3456 10.2635 19.0339H17.3373C17.4102 19.2148 17.4803 19.3986 17.5508 19.5835C17.6018 19.7171 17.653 19.8514 17.7056 19.9856Z" fill="url(#paint0_linear_4_31)"/>
<path fill-rule="evenodd" clip-rule="evenodd" d="M41.6138 31.1954C42.1077 31.8608 42.7105 32.4672 43.4137 32.8967C43.6564 33.0315 43.9076 33.1325 44.142 33.1999L44.4434 33.2336V33.9916H32.1123V33.2336C32.1123 33.2336 33.5773 33.301 34.6154 32.543C35.3186 32.0461 35.8543 31.1533 35.6032 29.6374C35.4944 29.0057 35.352 28.5341 35.3018 28.4161C34.2303 25.8727 33.1671 23.3292 32.1207 20.7773C32.0746 20.8699 32.0286 20.9604 31.9826 21.051C31.9365 21.1415 31.8905 21.2321 31.8444 21.3247C31.2264 22.5359 30.6115 23.7455 29.997 24.9542C29.1714 26.578 28.3467 28.2003 27.5164 29.8226C27.5164 29.8325 27.5135 29.8366 27.5112 29.84C27.5095 29.8424 27.508 29.8444 27.508 29.8479C27.2826 30.2959 27.0534 30.7438 26.8254 31.1892C26.7148 31.4054 26.6045 31.6209 26.4951 31.8355C26.1268 32.5514 25.7668 33.2673 25.4068 33.9832L24.1427 33.9916C22.6024 29.9237 21.0621 25.8643 19.5134 21.788L18.8688 20.0277C18.8018 19.8593 18.7327 19.6909 18.6637 19.5224C18.5946 19.354 18.5256 19.1855 18.4586 19.0171L17.8056 17.2569C17.4305 16.2778 17.0559 15.3 16.6816 14.323C15.6779 11.7027 14.6763 9.08765 13.6701 6.46817L9.7356 17.2569C9.62115 17.574 9.5067 17.8914 9.39218 18.2091C8.96219 19.4018 8.53111 20.5975 8.09481 21.788L5.91825 27.8013C5.57502 29.0141 5.57502 29.9574 5.76756 30.7238C6.49587 33.3936 10.1207 33.1915 10.1207 33.1915V34H0.443359V33.1915C0.443359 33.1915 2.52783 33.0904 4.21885 29.6542L8.72266 17.2569L13.1595 5.12906L11.2006 0.0252663H16.1983C17.4072 3.20801 18.4906 6.05557 19.4285 8.52086C20.1857 10.5112 20.8481 12.2524 21.4053 13.7196C21.5667 14.1395 21.7333 14.5724 21.9053 15.0194C23.2405 18.4898 24.9024 22.8095 27.0309 28.5172C27.4781 27.6561 27.9578 26.7338 28.4596 25.7691C29.3762 24.0069 30.3665 22.103 31.3673 20.1709C31.4133 20.0783 31.4614 19.9856 31.5096 19.893C31.5577 19.8004 31.6058 19.7077 31.6519 19.6151C30.7954 17.5314 29.9446 15.4463 29.0936 13.3609C27.8567 10.33 26.6197 7.29851 25.365 4.27C25.2185 3.92045 25.074 3.57089 24.9296 3.22133C24.7852 2.87185 24.6408 2.52238 24.4943 2.1729C24.2014 1.46546 23.9 0.741181 23.5986 0.0168986L23.5986 0.0168442H28.5628C29.1201 1.37835 29.6641 2.7076 30.1935 4.00128C31.724 7.74121 33.1329 11.184 34.3893 14.2502C37.2607 8.54 39.6131 3.68046 39.6214 2.91404C39.6298 2.20659 39.2698 1.76022 39.2698 1.76022C38.9266 1.33911 38.349 1.10329 37.5286 0.985385C37.4114 0.981174 37.2984 0.974858 37.1854 0.968541C37.0724 0.962224 36.9593 0.955908 36.8421 0.951697V0.0084221H44.0415C44.1755 0 44.3094 0 44.4434 0V0.918008C44.415 0.918008 44.3867 0.919976 44.3574 0.922009C44.3262 0.924182 44.2938 0.92643 44.2592 0.92643C44.1838 0.92643 44.1085 0.934853 44.0415 0.943275C42.5514 1.2212 41.3041 2.76245 39.973 5.35645C39.1192 7.02823 38.2695 8.7 37.4198 10.3718C36.5701 12.0436 35.7204 13.7154 34.8665 15.3872C37.9555 22.9334 39.9982 27.9445 40.4167 29.0478C40.4167 29.0478 40.7097 29.9911 41.6138 31.1954ZM17.7056 19.9856H9.89514C10.0207 19.6656 10.1463 19.3456 10.2635 19.0339H17.3373C17.4102 19.2148 17.4803 19.3986 17.5508 19.5835C17.6018 19.7171 17.653 19.8514 17.7056 19.9856Z" fill="white" fill-opacity="0.09"/>
<defs>
<linearGradient id="paint0_linear_4_31" x1="22.4491" y1="0.164905" x2="22.4491" y2="33.9361" gradientUnits="userSpaceOnUse">
<stop offset="0.0891892" stop-color="#AE6E56"/>
<stop offset="0.1151" stop-color="#C99179"/>
<stop offset="0.1416" stop-color="#DFAC95"/>
<stop offset="0.1684" stop-color="#EFC0A9"/>
<stop offset="0.195" stop-color="#F8CCB5"/>
<stop offset="0.2216" stop-color="#FBD0B9"/>
<stop offset="0.2635" stop-color="#F6CAB3"/>
<stop offset="0.3198" stop-color="#E9BAA2"/>
<stop offset="0.3324" stop-color="#E5B59D"/>
<stop offset="0.3355" stop-color="#E0AE96"/>
<stop offset="0.3492" stop-color="#CC957B"/>
<stop offset="0.365" stop-color="#BC8065"/>
<stop offset="0.3834" stop-color="#B07054"/>
<stop offset="0.4062" stop-color="#A76449"/>
<stop offset="0.4382" stop-color="#A25E42"/>
<stop offset="0.527" stop-color="#A15C40"/>
<stop offset="0.586" stop-color="#B96F50"/>
<stop offset="0.6559" stop-color="#CF7F5F"/>
<stop offset="0.7237" stop-color="#DC8A68"/>
<stop offset="0.7865" stop-color="#E08D6B"/>
<stop offset="0.7888" stop-color="#DD8B69"/>
<stop offset="0.8077" stop-color="#C7795A"/>
<stop offset="0.8298" stop-color="#B66C4E"/>
<stop offset="0.8571" stop-color="#AA6346"/>
<stop offset="0.8949" stop-color="#A35D41"/>
<stop offset="0.9944" stop-color="#A15C40"/>
</linearGradient>
</defs>
</svg>
