<svg width="42" height="41" viewBox="0 0 42 41" fill="none" xmlns="http://www.w3.org/2000/svg">
<path fill-rule="evenodd" clip-rule="evenodd" d="M19.3109 0H16.9071C15.5794 0 14.5032 1.07624 14.5032 2.40385V9.73077H10.8974H9.75321C8.39374 9.73077 7.29167 10.8328 7.29167 12.1923V15.9618V22.1929L4.88782 23.3926L2.48397 24.5924V31.5847V38.5769H1.24199H1.20192C0.53812 38.5769 0 39.115 0 39.7788C0 40.4426 0.538119 40.9808 1.20192 40.9808H20.5128H39.8237C40.4875 40.9808 41.0256 40.4426 41.0256 39.7788C41.0256 39.115 40.4875 38.5769 39.8237 38.5769H39.7837H38.5417V35.2883C38.5417 32.5929 38.5187 31.8883 38.4141 31.3822C38.0889 29.8078 37.1445 28.4248 35.7901 27.5397C34.6769 26.8124 33.5107 26.5054 32.1529 26.5822L31.3301 26.6288V21.9525V17.2762L28.9463 16.4816L26.5625 15.6869L26.5419 10.305L26.5261 2.40327C26.5235 1.0752 25.4461 0 24.118 0H21.7147H19.3109ZM24.0956 14.859C24.1083 14.859 24.1186 13.1643 24.1186 11.0929V2.40385H20.5128H16.9071V8.52885V9.73077C18.2347 9.73077 19.3109 10.807 19.3109 12.1346V24.1538V38.5769H20.5128H21.7147V26.323V14.0691L22.8937 14.464C23.542 14.6812 24.0829 14.859 24.0956 14.859ZM16.9071 38.5769V25.3558V12.1346H13.3013H9.69551V25.3558V38.5769H10.8974H12.0994V36.1731V33.7692H13.3013H14.5032V36.1731V38.5769H15.7051H16.9071ZM28.8862 18.9993L26.6426 18.2506C25.4087 17.8388 24.3359 17.4817 24.2588 17.4571C24.1257 17.4146 24.1186 17.9526 24.1186 27.9946V38.5769H25.3205H26.5224V35.2883C26.5224 32.6129 26.5459 31.8861 26.6482 31.391C26.9011 30.1665 27.3574 29.328 28.3006 28.3544L28.9276 27.7072L28.907 23.3532L28.8862 18.9993ZM7.29167 38.5769V31.766C7.29167 28.02 7.26458 24.9572 7.23157 24.9598C7.19856 24.9623 6.65769 25.2231 6.02965 25.5393L4.88782 26.1144V32.3457V38.5769H6.08974H7.29167ZM36.047 31.83C35.7516 30.4499 34.6418 29.3395 33.2693 29.0509C32.0657 28.7977 30.8921 29.1528 30.0022 30.0393C29.4783 30.5614 29.1615 31.1362 29.0156 31.83C28.9587 32.101 28.9263 33.3991 28.9263 35.4158V38.5769H30.1282H31.3301V37.375V36.1731H32.5321H33.734V37.375V38.5769H34.9359H36.1378V35.4158C36.1378 33.3623 36.106 32.1059 36.047 31.83Z" fill="#6F6F6F"/>
<path d="M12.0994 30.1635V31.3654H13.3013H14.5032V30.1635V28.9615H13.3013H12.0994V30.1635Z" fill="#6F6F6F"/>
<path d="M12.0994 25.3558V26.5577H13.3013H14.5032V25.3558V24.1538H13.3013H12.0994V25.3558Z" fill="#6F6F6F"/>
<path d="M12.0994 20.5481V21.75H13.3013H14.5032V20.5481V19.3462H13.3013H12.0994V20.5481Z" fill="#6F6F6F"/>
<path d="M12.0994 15.7404V16.9423H13.3013H14.5032V15.7404V14.5385H13.3013H12.0994V15.7404Z" fill="#6F6F6F"/>
<path d="M31.3301 32.5673V33.7692H32.5321H33.734V32.5673V31.3654H32.5321H31.3301V32.5673Z" fill="#6F6F6F"/>
</svg>
