<svg width="39" height="39" viewBox="0 0 39 39" fill="none" xmlns="http://www.w3.org/2000/svg">
<path fill-rule="evenodd" clip-rule="evenodd" d="M5.73468 0.0273868C5.12784 0.121215 4.2489 0.395639 3.70629 0.660748C1.1153 1.92657 -0.400682 4.8816 0.0926503 7.70465C0.51732 10.1348 2.10685 12.7512 4.83268 15.5068C6.12434 16.8125 6.24897 16.8902 6.86708 16.7742C7.17306 16.7168 7.88087 16.0948 8.91118 14.978C11.0671 12.6413 12.4237 10.4273 12.9948 8.31389C13.1371 7.78706 13.1653 7.49701 13.1624 6.5911C13.1593 5.63201 13.1349 5.42301 12.9584 4.84209C12.2544 2.5253 10.4959 0.77794 8.28886 0.202273C7.70042 0.0487968 6.24221 -0.0510415 5.73468 0.0273868ZM7.93 2.61139C9.87516 3.28081 11.1196 5.38726 10.7338 7.3572C10.399 9.06685 9.0162 11.3794 7.17148 13.3146L6.5986 13.9156L6.02571 13.3146C4.23358 11.4345 2.85109 9.16008 2.50365 7.5203C2.21472 6.15674 2.5799 4.79942 3.50533 3.79698C4.16198 3.08564 5.00622 2.60861 5.92249 2.43109C6.33529 2.35116 7.46995 2.45303 7.93 2.61139ZM5.99761 4.88634C5.62891 5.00255 5.00006 5.65372 4.887 6.03639C4.67891 6.74075 4.82562 7.30229 5.35651 7.83318C6.1254 8.60207 7.18636 8.58569 7.89815 7.79397C8.57178 7.04477 8.57178 6.13743 7.89815 5.38823C7.41195 4.8475 6.70955 4.66194 5.99761 4.88634ZM30.976 16.8549C28.3985 17.2533 26.4051 18.9302 25.5603 21.411C24.5074 24.5028 26.0515 28.2513 30.0604 32.3353C31.1271 33.4221 31.4183 33.6353 31.8349 33.6353C32.2485 33.6353 32.5361 33.4481 33.3198 32.6687C35.858 30.1445 37.5747 27.5313 38.201 25.2384C38.3742 24.6045 38.4006 24.3638 38.4008 23.4186C38.401 22.4477 38.3787 22.2564 38.1967 21.6579C37.4934 19.346 35.7388 17.6059 33.5302 17.0298C32.9417 16.8763 31.4835 16.7765 30.976 16.8549ZM5.88072 18.2632C4.77168 18.7797 4.45579 20.1146 5.22895 21.0179C5.87449 21.772 6.91464 21.8945 7.66722 21.305L7.94705 21.0858L13.0385 21.1066L18.13 21.1274L18.5807 21.3084C18.9076 21.4395 19.1675 21.6253 19.5266 21.9845C20.1849 22.6428 20.3771 23.1112 20.3771 24.0572C20.3771 25.0032 20.1849 25.4716 19.5266 26.1299C19.1675 26.4891 18.9076 26.6748 18.5807 26.806L18.13 26.987L11.2562 27.0251L4.38247 27.0634L3.78149 27.2674C2.91096 27.5629 2.28511 27.957 1.6027 28.6394C0.916223 29.3259 0.521377 29.9552 0.235759 30.8182C0.0601221 31.3489 0.036834 31.5379 0.036834 32.4334C0.036834 33.3288 0.0601221 33.5179 0.235759 34.0485C0.522729 34.9155 0.916598 35.543 1.60322 36.2271C2.28977 36.911 2.91442 37.3047 3.78149 37.6L4.38247 37.8047L17.4506 37.8249C30.2471 37.8447 30.5219 37.8482 30.6731 37.9902C30.9818 38.2802 31.5337 38.4648 31.9602 38.4208C33.0136 38.312 33.7147 37.5033 33.6239 36.5017C33.5778 35.9932 33.4484 35.7101 33.1117 35.3809C32.4401 34.7243 31.4142 34.672 30.7168 35.2589L30.5011 35.4404L17.5881 35.4206L4.67515 35.4007L4.10744 35.1202C3.42375 34.7822 2.99788 34.3472 2.66704 33.6489C2.45204 33.195 2.42927 33.0788 2.42927 32.4334C2.42927 31.788 2.45204 31.6717 2.66704 31.2179C2.9978 30.5196 3.42375 30.0845 4.10737 29.7466L4.67492 29.466L11.5527 29.4249C19.2236 29.379 18.6856 29.4173 19.8578 28.8333C20.9611 28.2836 21.7084 27.5228 22.2617 26.386C23.0087 24.8512 23.0092 23.2461 22.2633 21.7284C21.6861 20.554 20.9482 19.8166 19.7827 19.2494C18.6259 18.6863 18.6204 18.6859 12.9453 18.6859H7.94202L7.66467 18.4698C7.11965 18.0451 6.50259 17.9736 5.88072 18.2632ZM33.1713 19.4389C34.41 19.8652 35.4523 20.9332 35.8424 22.1759C36.1032 23.0067 36.0731 24.0685 35.763 24.9739C35.2101 26.5878 33.9573 28.5208 32.4133 30.1421L31.841 30.7431L31.3122 30.1889C29.816 28.6207 28.4396 26.5404 27.9512 25.1089C27.5802 24.0217 27.5495 23.1024 27.8519 22.1361C28.2983 20.7095 29.6253 19.5566 31.1638 19.2586C31.5766 19.1787 32.7112 19.2806 33.1713 19.4389ZM31.2492 21.7185C30.6201 21.9462 30.0393 22.7391 30.0377 23.3724C30.0352 24.3481 30.8865 25.2216 31.8399 25.2216C32.7707 25.2216 33.6428 24.3495 33.6428 23.4186C33.6428 22.9461 33.471 22.5656 33.082 22.1765C32.5519 21.6465 31.8991 21.4833 31.2492 21.7185Z" fill="#6F6F6F"/>
</svg>
